<svg width="39" height="50" viewBox="0 0 39 50" fill="none" xmlns="http://www.w3.org/2000/svg">
<g clip-path="url(#clip0)">
<g filter="url(#filter0_d)">
<path fill-rule="evenodd" clip-rule="evenodd" d="M19 27C19 27 28 21 28 14C28 11.6131 27.0518 9.32387 25.364 7.63604C23.6761 5.94821 21.3869 5 19 5C16.6131 5 14.3239 5.94821 12.636 7.63604C10.9482 9.32387 10 11.6131 10 14C10 21 19 27 19 27ZM23 14C23 16.2091 21.2091 18 19 18C16.7909 18 15 16.2091 15 14C15 11.7909 16.7909 10 19 10C21.2091 10 23 11.7909 23 14Z" fill="black"/>
<path d="M19 27L18.4453 27.8321C18.7812 28.056 19.2188 28.056 19.5547 27.8321L19 27ZM25.364 7.63604L24.6569 8.34315L24.6569 8.34315L25.364 7.63604ZM12.636 7.63604L13.3431 8.34315L13.3431 8.34315L12.636 7.63604ZM27 14C27 17.0981 24.9843 20.1043 22.774 22.4373C21.6894 23.5822 20.6013 24.5195 19.7833 25.1708C19.3751 25.4959 19.0362 25.7482 18.8012 25.9178C18.6838 26.0026 18.5925 26.0667 18.5317 26.1088C18.5013 26.1299 18.4785 26.1454 18.464 26.1553C18.4567 26.1603 18.4514 26.1638 18.4483 26.1659C18.4467 26.167 18.4457 26.1677 18.4452 26.168C18.4449 26.1682 18.4448 26.1683 18.4448 26.1683C18.4448 26.1683 18.445 26.1682 18.445 26.1682C18.4451 26.1681 18.4453 26.1679 19 27C19.5547 27.8321 19.555 27.8319 19.5552 27.8317C19.5554 27.8316 19.5557 27.8314 19.556 27.8312C19.5566 27.8308 19.5573 27.8303 19.5581 27.8298C19.5598 27.8287 19.562 27.8272 19.5648 27.8253C19.5703 27.8216 19.5779 27.8164 19.5877 27.8098C19.6072 27.7966 19.6349 27.7776 19.6704 27.753C19.7415 27.7038 19.8435 27.6321 19.9722 27.5392C20.2295 27.3534 20.5936 27.0822 21.0292 26.7354C21.8987 26.043 23.0606 25.0428 24.226 23.8127C26.5157 21.3957 29 17.9019 29 14H27ZM24.6569 8.34315C26.1571 9.84344 27 11.8783 27 14H29C29 11.3478 27.9464 8.8043 26.0711 6.92893L24.6569 8.34315ZM19 6C21.1217 6 23.1566 6.84285 24.6569 8.34315L26.0711 6.92893C24.1957 5.05357 21.6522 4 19 4V6ZM13.3431 8.34315C14.8434 6.84285 16.8783 6 19 6V4C16.3478 4 13.8043 5.05357 11.9289 6.92893L13.3431 8.34315ZM11 14C11 11.8783 11.8429 9.84344 13.3431 8.34315L11.9289 6.92893C10.0536 8.8043 9 11.3478 9 14H11ZM19 27C19.5547 26.1679 19.5549 26.1681 19.555 26.1682C19.555 26.1682 19.5552 26.1683 19.5552 26.1683C19.5552 26.1683 19.5551 26.1682 19.5548 26.168C19.5543 26.1677 19.5533 26.167 19.5517 26.1659C19.5486 26.1638 19.5433 26.1603 19.536 26.1553C19.5215 26.1454 19.4987 26.1299 19.4683 26.1088C19.4075 26.0667 19.3162 26.0026 19.1988 25.9178C18.9638 25.7482 18.6249 25.4959 18.2167 25.1708C17.3987 24.5195 16.3106 23.5822 15.226 22.4373C13.0157 20.1043 11 17.0981 11 14H9C9 17.9019 11.4843 21.3957 13.774 23.8127C14.9394 25.0428 16.1013 26.043 16.9708 26.7354C17.4064 27.0822 17.7705 27.3534 18.0278 27.5392C18.1565 27.6321 18.2585 27.7038 18.3296 27.753C18.3651 27.7776 18.3928 27.7966 18.4123 27.8098C18.4221 27.8164 18.4297 27.8216 18.4352 27.8253C18.438 27.8272 18.4402 27.8287 18.4419 27.8298C18.4427 27.8303 18.4434 27.8308 18.444 27.8312C18.4443 27.8314 18.4446 27.8316 18.4448 27.8317C18.445 27.8319 18.4453 27.8321 19 27ZM19 19C21.7614 19 24 16.7614 24 14H22C22 15.6569 20.6569 17 19 17V19ZM14 14C14 16.7614 16.2386 19 19 19V17C17.3431 17 16 15.6569 16 14H14ZM19 9C16.2386 9 14 11.2386 14 14H16C16 12.3431 17.3431 11 19 11V9ZM24 14C24 11.2386 21.7614 9 19 9V11C20.6569 11 22 12.3431 22 14H24Z" fill="black"/>
</g>
</g>
<defs>
<filter id="filter0_d" x="-1" y="4" width="40" height="49" filterUnits="userSpaceOnUse" color-interpolation-filters="sRGB">
<feFlood flood-opacity="0" result="BackgroundImageFix"/>
<feColorMatrix in="SourceAlpha" type="matrix" values="0 0 0 0 0 0 0 0 0 0 0 0 0 0 0 0 0 0 127 0"/>
<feOffset dy="15"/>
<feGaussianBlur stdDeviation="5"/>
<feColorMatrix type="matrix" values="0 0 0 0 0 0 0 0 0 0 0 0 0 0 0 0 0 0 0.25 0"/>
<feBlend mode="normal" in2="BackgroundImageFix" result="effect1_dropShadow"/>
<feBlend mode="normal" in="SourceGraphic" in2="effect1_dropShadow" result="shape"/>
</filter>
<clipPath id="clip0">
<rect width="39" height="50" fill="white"/>
</clipPath>
</defs>
</svg>
